# xmcd
#
# Track frame offsets:
#	150
#	12287
#	23237
#	36537
#	48887
#	63450
#	78057
#	90537
#	103755
#	115662
#	125800
#	138087
#	151025
#	162367
#	174587
#	190737
#	203037
#	213737
#	225262
#	236550
#
# Disc length: 3295 seconds
#
# Revision: 0
# Processed by: cddbd v1.5.2PL0 Copyright (c) Steve Scherf et al.
# Submitted via: dBpowerAMP V4.0
#
DISCID=000cdd14
DTITLE=Various Artist - Country Collection Vol 1 CD 1
DYEAR=1900
DGENRE=Country
TTITLE0=Tammy Wynette - Stand By Your Man
TTITLE1=Jim Reeves - He'll Have To Go
TTITLE2=Crystal Gayle - Why Have You Left The One You Left Me For
TTITLE3=Charlie Rich - The Most Beautiful Girl In The World
TTITLE4=Glen Campbell - Rhinestone Cowboy
TTITLE5=Jeannie C Riley - Harper Valley PTA
TTITLE6=Tommy Overstreet - Gwen (Congratulations)
TTITLE7=Merle Haggard - Okie From Muskogee
TTITLE8=Dolly Parton - Jolene
TTITLE9=George Hamilton IV - Abilene
TTITLE10=Freddy Fender - Wasted Days And Wasted Nights
TTITLE11=Patsy Cline - I Fall To Pieces
TTITLE12=Roger Miller - King Of The Road
TTITLE13=Del Reeves - Girl On A Billboard
TTITLE14=Billie Jo Spears - Blanket On The Ground
TTITLE15=Bobby Bare - 500 Miles Away From Home
TTITLE16=Leroy Van Dyke - Walk On By
TTITLE17=Donna Fargo - The Happiest Girl In The Whole USA
TTITLE18=Sonny James - Young Love
TTITLE19=Hank Locklin - Please Help Me I'm Falling
EXTD=
EXTT0=
EXTT1=
EXTT2=
EXTT3=
EXTT4=
EXTT5=
EXTT6=
EXTT7=
EXTT8=
EXTT9=
EXTT10=
EXTT11=
EXTT12=
EXTT13=
EXTT14=
EXTT15=
EXTT16=
EXTT17=
EXTT18=
EXTT19=
PLAYORDER=
